<mxfile host="app.diagrams.net" agent="Mozilla/5.0 (Macintosh; Intel Mac OS X 10_15_7) AppleWebKit/537.36 (KHTML, like Gecko) Chrome/135.0.0.0 Safari/537.36" version="26.2.13">
  <diagram name="第 1 页" id="rapsWILdtUeaXrwmZ_yq">
    <mxGraphModel dx="1300" dy="830" grid="0" gridSize="10" guides="1" tooltips="1" connect="1" arrows="1" fold="1" page="1" pageScale="1" pageWidth="827" pageHeight="1169" math="0" shadow="0">
      <root>
        <mxCell id="0" />
        <mxCell id="1" parent="0" />
        <mxCell id="Bq2TZNVadAcSocq37hax-2" value="" style="rounded=0;whiteSpace=wrap;html=1;fillColor=#7FAEFF;" vertex="1" parent="1">
          <mxGeometry x="120" y="96" width="624" height="94" as="geometry" />
        </mxCell>
        <mxCell id="Bq2TZNVadAcSocq37hax-1" value="MySQL" style="rounded=1;whiteSpace=wrap;html=1;" vertex="1" parent="1">
          <mxGeometry x="354" y="117" width="120" height="60" as="geometry" />
        </mxCell>
        <mxCell id="Bq2TZNVadAcSocq37hax-3" value="数据库软件" style="text;html=1;align=center;verticalAlign=middle;whiteSpace=wrap;rounded=0;" vertex="1" parent="1">
          <mxGeometry x="656" y="147" width="79" height="30" as="geometry" />
        </mxCell>
        <mxCell id="Bq2TZNVadAcSocq37hax-4" value="" style="rounded=0;whiteSpace=wrap;html=1;fillColor=#7FAEFF;" vertex="1" parent="1">
          <mxGeometry x="120" y="232" width="624" height="94" as="geometry" />
        </mxCell>
        <mxCell id="Bq2TZNVadAcSocq37hax-5" value="数据库" style="text;html=1;align=center;verticalAlign=middle;whiteSpace=wrap;rounded=0;" vertex="1" parent="1">
          <mxGeometry x="656" y="283" width="79" height="30" as="geometry" />
        </mxCell>
        <mxCell id="Bq2TZNVadAcSocq37hax-6" value="" style="shape=cylinder3;whiteSpace=wrap;html=1;boundedLbl=1;backgroundOutline=1;size=15;" vertex="1" parent="1">
          <mxGeometry x="283" y="249" width="60" height="60" as="geometry" />
        </mxCell>
        <mxCell id="Bq2TZNVadAcSocq37hax-7" value="" style="shape=cylinder3;whiteSpace=wrap;html=1;boundedLbl=1;backgroundOutline=1;size=15;" vertex="1" parent="1">
          <mxGeometry x="187" y="249" width="60" height="60" as="geometry" />
        </mxCell>
        <mxCell id="Bq2TZNVadAcSocq37hax-8" value="" style="shape=cylinder3;whiteSpace=wrap;html=1;boundedLbl=1;backgroundOutline=1;size=15;" vertex="1" parent="1">
          <mxGeometry x="501" y="249" width="60" height="60" as="geometry" />
        </mxCell>
        <mxCell id="Bq2TZNVadAcSocq37hax-9" value="mysql" style="shape=cylinder3;whiteSpace=wrap;html=1;boundedLbl=1;backgroundOutline=1;size=15;" vertex="1" parent="1">
          <mxGeometry x="392" y="249" width="60" height="60" as="geometry" />
        </mxCell>
        <mxCell id="Bq2TZNVadAcSocq37hax-10" value="" style="endArrow=classic;html=1;rounded=0;" edge="1" parent="1" target="Bq2TZNVadAcSocq37hax-7">
          <mxGeometry width="50" height="50" relative="1" as="geometry">
            <mxPoint x="414" y="177" as="sourcePoint" />
            <mxPoint x="361" y="224" as="targetPoint" />
          </mxGeometry>
        </mxCell>
        <mxCell id="Bq2TZNVadAcSocq37hax-11" value="" style="endArrow=classic;html=1;rounded=0;exitX=0.5;exitY=1;exitDx=0;exitDy=0;entryX=0.855;entryY=0;entryDx=0;entryDy=4.35;entryPerimeter=0;" edge="1" parent="1" source="Bq2TZNVadAcSocq37hax-1" target="Bq2TZNVadAcSocq37hax-6">
          <mxGeometry width="50" height="50" relative="1" as="geometry">
            <mxPoint x="424" y="187" as="sourcePoint" />
            <mxPoint x="257" y="273" as="targetPoint" />
          </mxGeometry>
        </mxCell>
        <mxCell id="Bq2TZNVadAcSocq37hax-12" value="" style="endArrow=classic;html=1;rounded=0;exitX=0.5;exitY=1;exitDx=0;exitDy=0;" edge="1" parent="1" source="Bq2TZNVadAcSocq37hax-1" target="Bq2TZNVadAcSocq37hax-9">
          <mxGeometry width="50" height="50" relative="1" as="geometry">
            <mxPoint x="424" y="187" as="sourcePoint" />
            <mxPoint x="353" y="259" as="targetPoint" />
          </mxGeometry>
        </mxCell>
        <mxCell id="Bq2TZNVadAcSocq37hax-13" value="" style="endArrow=classic;html=1;rounded=0;exitX=0.5;exitY=1;exitDx=0;exitDy=0;" edge="1" parent="1" source="Bq2TZNVadAcSocq37hax-1" target="Bq2TZNVadAcSocq37hax-8">
          <mxGeometry width="50" height="50" relative="1" as="geometry">
            <mxPoint x="424" y="187" as="sourcePoint" />
            <mxPoint x="501" y="253" as="targetPoint" />
          </mxGeometry>
        </mxCell>
        <mxCell id="Bq2TZNVadAcSocq37hax-14" value="" style="rounded=0;whiteSpace=wrap;html=1;fillColor=#7FAEFF;" vertex="1" parent="1">
          <mxGeometry x="120" y="371" width="624" height="94" as="geometry" />
        </mxCell>
        <mxCell id="Bq2TZNVadAcSocq37hax-15" value="数据表" style="text;html=1;align=center;verticalAlign=middle;whiteSpace=wrap;rounded=0;" vertex="1" parent="1">
          <mxGeometry x="656" y="422" width="79" height="30" as="geometry" />
        </mxCell>
        <mxCell id="Bq2TZNVadAcSocq37hax-16" value="table1" style="rounded=1;whiteSpace=wrap;html=1;" vertex="1" parent="1">
          <mxGeometry x="145" y="388" width="120" height="60" as="geometry" />
        </mxCell>
        <mxCell id="Bq2TZNVadAcSocq37hax-17" value="学生信息表" style="rounded=1;whiteSpace=wrap;html=1;" vertex="1" parent="1">
          <mxGeometry x="307" y="388" width="120" height="60" as="geometry" />
        </mxCell>
        <mxCell id="Bq2TZNVadAcSocq37hax-18" value="table2" style="rounded=1;whiteSpace=wrap;html=1;" vertex="1" parent="1">
          <mxGeometry x="467" y="388" width="120" height="60" as="geometry" />
        </mxCell>
        <mxCell id="Bq2TZNVadAcSocq37hax-19" value="" style="endArrow=classic;html=1;rounded=0;entryX=0.5;entryY=0;entryDx=0;entryDy=0;" edge="1" parent="1" target="Bq2TZNVadAcSocq37hax-16">
          <mxGeometry width="50" height="50" relative="1" as="geometry">
            <mxPoint x="316" y="309" as="sourcePoint" />
            <mxPoint x="149" y="395" as="targetPoint" />
          </mxGeometry>
        </mxCell>
        <mxCell id="Bq2TZNVadAcSocq37hax-21" value="" style="endArrow=classic;html=1;rounded=0;entryX=0.5;entryY=0;entryDx=0;entryDy=0;fontStyle=1" edge="1" parent="1">
          <mxGeometry width="50" height="50" relative="1" as="geometry">
            <mxPoint x="319" y="309" as="sourcePoint" />
            <mxPoint x="367" y="388" as="targetPoint" />
            <Array as="points">
              <mxPoint x="330" y="325" />
            </Array>
          </mxGeometry>
        </mxCell>
        <mxCell id="Bq2TZNVadAcSocq37hax-23" value="" style="rounded=0;whiteSpace=wrap;html=1;fillColor=#7FAEFF;" vertex="1" parent="1">
          <mxGeometry x="120" y="528" width="624" height="94" as="geometry" />
        </mxCell>
        <mxCell id="Bq2TZNVadAcSocq37hax-24" value="字段【列】" style="text;html=1;align=center;verticalAlign=middle;whiteSpace=wrap;rounded=0;" vertex="1" parent="1">
          <mxGeometry x="656" y="579" width="79" height="30" as="geometry" />
        </mxCell>
        <mxCell id="Bq2TZNVadAcSocq37hax-25" value="" style="endArrow=classic;html=1;rounded=0;entryX=0.5;entryY=0;entryDx=0;entryDy=0;fontStyle=1;exitX=0.617;exitY=0.95;exitDx=0;exitDy=0;exitPerimeter=0;" edge="1" parent="1" source="Bq2TZNVadAcSocq37hax-6" target="Bq2TZNVadAcSocq37hax-18">
          <mxGeometry width="50" height="50" relative="1" as="geometry">
            <mxPoint x="329" y="319" as="sourcePoint" />
            <mxPoint x="377" y="398" as="targetPoint" />
            <Array as="points" />
          </mxGeometry>
        </mxCell>
        <mxCell id="Bq2TZNVadAcSocq37hax-26" value="字段1" style="ellipse;whiteSpace=wrap;html=1;" vertex="1" parent="1">
          <mxGeometry x="157" y="537" width="120" height="80" as="geometry" />
        </mxCell>
        <mxCell id="Bq2TZNVadAcSocq37hax-27" value="字段2" style="ellipse;whiteSpace=wrap;html=1;" vertex="1" parent="1">
          <mxGeometry x="323" y="537" width="120" height="80" as="geometry" />
        </mxCell>
        <mxCell id="Bq2TZNVadAcSocq37hax-28" value="字段3" style="ellipse;whiteSpace=wrap;html=1;" vertex="1" parent="1">
          <mxGeometry x="474" y="537" width="120" height="80" as="geometry" />
        </mxCell>
        <mxCell id="Bq2TZNVadAcSocq37hax-29" value="" style="endArrow=classic;html=1;rounded=0;" edge="1" parent="1" target="Bq2TZNVadAcSocq37hax-26">
          <mxGeometry width="50" height="50" relative="1" as="geometry">
            <mxPoint x="368.5" y="448" as="sourcePoint" />
            <mxPoint x="257.5" y="527" as="targetPoint" />
          </mxGeometry>
        </mxCell>
        <mxCell id="Bq2TZNVadAcSocq37hax-30" value="" style="endArrow=classic;html=1;rounded=0;exitX=0.5;exitY=1;exitDx=0;exitDy=0;" edge="1" parent="1" source="Bq2TZNVadAcSocq37hax-17" target="Bq2TZNVadAcSocq37hax-27">
          <mxGeometry width="50" height="50" relative="1" as="geometry">
            <mxPoint x="378.5" y="458" as="sourcePoint" />
            <mxPoint x="264" y="555" as="targetPoint" />
          </mxGeometry>
        </mxCell>
        <mxCell id="Bq2TZNVadAcSocq37hax-31" value="" style="endArrow=classic;html=1;rounded=0;entryX=0.5;entryY=0;entryDx=0;entryDy=0;" edge="1" parent="1" target="Bq2TZNVadAcSocq37hax-28">
          <mxGeometry width="50" height="50" relative="1" as="geometry">
            <mxPoint x="368" y="450" as="sourcePoint" />
            <mxPoint x="274" y="565" as="targetPoint" />
          </mxGeometry>
        </mxCell>
      </root>
    </mxGraphModel>
  </diagram>
</mxfile>
